<svg xmlns="http://www.w3.org/2000/svg" style="display:none">

  <symbol id="home" viewBox="0 0 24 24">
    <path d="M3 9l9-7 9 7v11a2 2 0 01-2 2H5a2 2 0 01-2-2z"/>
    <polyline points="9 22 9 12 15 12 15 22"/>
  </symbol>

  <symbol id="target" viewBox="0 0 24 24">
    <circle cx="12" cy="12" r="10"/>
    <circle cx="12" cy="12" r="6"/>
    <circle cx="12" cy="12" r="2"/>
  </symbol>

  <symbol id="mail" viewBox="0 0 24 24">
    <path d="M4 4h16c1.1 0 2 .9 2 2v12c0 1.1-.9 2-2 2H4c-1.1 0-2-.9-2-2V6c0-1.1.9-2 2-2z"/>
    <polyline points="22 6 12 13 2 6"/>
  </symbol>

  <symbol id="bar-chart" viewBox="0 0 24 24">
    <line x1="12" y1="20" x2="12" y2="10"/>
    <line x1="18" y1="20" x2="18" y2="4"/>
    <line x1="6" y1="20" x2="6" y2="16"/>
  </symbol>

  <symbol id="search" viewBox="0 0 24 24">
    <circle cx="11" cy="11" r="8"/>
    <line x1="21" y1="21" x2="16.65" y2="16.65"/>
  </symbol>

  <symbol id="pen-tool" viewBox="0 0 24 24">
    <path d="M12 19l7-7 3 3-7 7-3-3z"/>
    <path d="M18 13l-1.5-7.5L2 2l3.5 14.5L13 18l5-5z"/>
    <path d="M2 2l7.586 7.586"/>
    <circle cx="11" cy="11" r="2"/>
  </symbol>

  <symbol id="file-text" viewBox="0 0 24 24">
    <path d="M14 2H6a2 2 0 00-2 2v16a2 2 0 002 2h12a2 2 0 002-2V8z"/>
    <polyline points="14 2 14 8 20 8"/>
    <line x1="16" y1="13" x2="8" y2="13"/>
    <line x1="16" y1="17" x2="8" y2="17"/>
    <polyline points="10 9 9 9 8 9"/>
  </symbol>

  <symbol id="bot" viewBox="0 0 24 24">
    <rect x="3" y="11" width="18" height="10" rx="2"/>
    <circle cx="12" cy="5" r="2"/>
    <path d="M12 7v4"/>
    <line x1="8" y1="16" x2="8" y2="16"/>
    <line x1="16" y1="16" x2="16" y2="16"/>
  </symbol>

  <symbol id="brain" viewBox="0 0 24 24">
    <path d="M9.5 2a3.5 3.5 0 00-3 5.29A3.5 3.5 0 004 11a3.5 3.5 0 003.17 3.48A3.5 3.5 0 0010.5 22h0a3.5 3.5 0 003.33-7.52A3.5 3.5 0 0020 11a3.5 3.5 0 00-2.5-3.71A3.5 3.5 0 0014.5 2h0a3.5 3.5 0 00-2.5 1.03A3.5 3.5 0 009.5 2z"/>
    <path d="M12 2v20"/>
  </symbol>

  <symbol id="globe" viewBox="0 0 24 24">
    <circle cx="12" cy="12" r="10"/>
    <line x1="2" y1="12" x2="22" y2="12"/>
    <path d="M12 2a15.3 15.3 0 014 10 15.3 15.3 0 01-4 10 15.3 15.3 0 01-4-10 15.3 15.3 0 014-10z"/>
  </symbol>

  <symbol id="settings" viewBox="0 0 24 24">
    <circle cx="12" cy="12" r="3"/>
    <path d="M19.4 15a1.65 1.65 0 00.33 1.82l.06.06a2 2 0 010 2.83 2 2 0 01-2.83 0l-.06-.06a1.65 1.65 0 00-1.82-.33 1.65 1.65 0 00-1 1.51V21a2 2 0 01-4 0v-.09A1.65 1.65 0 009 19.4a1.65 1.65 0 00-1.82.33l-.06.06a2 2 0 01-2.83-2.83l.06-.06a1.65 1.65 0 00.33-1.82 1.65 1.65 0 00-1.51-1H3a2 2 0 010-4h.09A1.65 1.65 0 004.6 9a1.65 1.65 0 00-.33-1.82l-.06-.06a2 2 0 012.83-2.83l.06.06a1.65 1.65 0 001.82.33H9a1.65 1.65 0 001-1.51V3a2 2 0 114 0v.09a1.65 1.65 0 001 1.51 1.65 1.65 0 001.82-.33l.06-.06a2 2 0 012.83 2.83l-.06.06a1.65 1.65 0 00-.33 1.82V9a1.65 1.65 0 001.51 1H21a2 2 0 010 4h-.09a1.65 1.65 0 00-1.51 1z"/>
  </symbol>

  <symbol id="user" viewBox="0 0 24 24">
    <path d="M20 21v-2a4 4 0 00-4-4H8a4 4 0 00-4 4v2"/>
    <circle cx="12" cy="7" r="4"/>
  </symbol>

  <symbol id="log-out" viewBox="0 0 24 24">
    <path d="M9 21H5a2 2 0 01-2-2V5a2 2 0 012-2h4"/>
    <polyline points="16 17 21 12 16 7"/>
    <line x1="21" y1="12" x2="9" y2="12"/>
  </symbol>

  <symbol id="trending-up" viewBox="0 0 24 24">
    <polyline points="23 6 13.5 15.5 8.5 10.5 1 18"/>
    <polyline points="17 6 23 6 23 12"/>
  </symbol>

  <symbol id="dollar-sign" viewBox="0 0 24 24">
    <line x1="12" y1="1" x2="12" y2="23"/>
    <path d="M17 5H9.5a3.5 3.5 0 000 7h5a3.5 3.5 0 010 7H6"/>
  </symbol>

  <symbol id="eye" viewBox="0 0 24 24">
    <path d="M1 12s4-8 11-8 11 8 11 8-4 8-11 8-11-8-11-8z"/>
    <circle cx="12" cy="12" r="3"/>
  </symbol>

  <symbol id="bell" viewBox="0 0 24 24">
    <path d="M18 8A6 6 0 006 8c0 7-3 9-3 9h18s-3-2-3-9"/>
    <path d="M13.73 21a2 2 0 01-3.46 0"/>
  </symbol>

  <symbol id="clock" viewBox="0 0 24 24">
    <circle cx="12" cy="12" r="10"/>
    <polyline points="12 6 12 12 16 14"/>
  </symbol>

  <symbol id="check-circle" viewBox="0 0 24 24">
    <path d="M22 11.08V12a10 10 0 11-5.93-9.14"/>
    <polyline points="22 4 12 14.01 9 11.01"/>
  </symbol>

  <symbol id="alert-triangle" viewBox="0 0 24 24">
    <path d="M10.29 3.86L1.82 18a2 2 0 001.71 3h16.94a2 2 0 001.71-3L13.71 3.86a2 2 0 00-3.42 0z"/>
    <line x1="12" y1="9" x2="12" y2="13"/>
    <line x1="12" y1="17" x2="12.01" y2="17"/>
  </symbol>

  <symbol id="x" viewBox="0 0 24 24">
    <line x1="18" y1="6" x2="6" y2="18"/>
    <line x1="6" y1="6" x2="18" y2="18"/>
  </symbol>

  <symbol id="copy" viewBox="0 0 24 24">
    <rect x="9" y="9" width="13" height="13" rx="2" ry="2"/>
    <path d="M5 15H4a2 2 0 01-2-2V4a2 2 0 012-2h9a2 2 0 012 2v1"/>
  </symbol>

  <symbol id="chevron-left" viewBox="0 0 24 24">
    <polyline points="15 18 9 12 15 6"/>
  </symbol>

  <symbol id="chevron-right" viewBox="0 0 24 24">
    <polyline points="9 18 15 12 9 6"/>
  </symbol>

  <symbol id="activity" viewBox="0 0 24 24">
    <polyline points="22 12 18 12 15 21 9 3 6 12 2 12"/>
  </symbol>

  <symbol id="zap" viewBox="0 0 24 24">
    <polygon points="13 2 3 14 12 14 11 22 21 10 12 10 13 2"/>
  </symbol>

  <symbol id="cpu" viewBox="0 0 24 24">
    <rect x="4" y="4" width="16" height="16" rx="2" ry="2"/>
    <rect x="9" y="9" width="6" height="6"/>
    <line x1="9" y1="1" x2="9" y2="4"/>
    <line x1="15" y1="1" x2="15" y2="4"/>
    <line x1="9" y1="20" x2="9" y2="23"/>
    <line x1="15" y1="20" x2="15" y2="23"/>
    <line x1="20" y1="9" x2="23" y2="9"/>
    <line x1="20" y1="14" x2="23" y2="14"/>
    <line x1="1" y1="9" x2="4" y2="9"/>
    <line x1="1" y1="14" x2="4" y2="14"/>
  </symbol>

  <symbol id="hard-drive" viewBox="0 0 24 24">
    <line x1="22" y1="12" x2="2" y2="12"/>
    <path d="M5.45 5.11L2 12v6a2 2 0 002 2h16a2 2 0 002-2v-6l-3.45-6.89A2 2 0 0016.76 4H7.24a2 2 0 00-1.79 1.11z"/>
    <line x1="6" y1="16" x2="6.01" y2="16"/>
    <line x1="10" y1="16" x2="10.01" y2="16"/>
  </symbol>

  <symbol id="refresh-cw" viewBox="0 0 24 24">
    <polyline points="23 4 23 10 17 10"/>
    <polyline points="1 20 1 14 7 14"/>
    <path d="M3.51 9a9 9 0 0114.85-3.36L23 10M1 14l4.64 4.36A9 9 0 0020.49 15"/>
  </symbol>

  <symbol id="download" viewBox="0 0 24 24">
    <path d="M21 15v4a2 2 0 01-2 2H5a2 2 0 01-2-2v-4"/>
    <polyline points="7 10 12 15 17 10"/>
    <line x1="12" y1="15" x2="12" y2="3"/>
  </symbol>

  <symbol id="phone" viewBox="0 0 24 24">
    <path d="M22 16.92v3a2 2 0 01-2.18 2 19.79 19.79 0 01-8.63-3.07 19.5 19.5 0 01-6-6 19.79 19.79 0 01-3.07-8.67A2 2 0 014.11 2h3a2 2 0 012 1.72 12.84 12.84 0 00.7 2.81 2 2 0 01-.45 2.11L8.09 9.91a16 16 0 006 6l1.27-1.27a2 2 0 012.11-.45 12.84 12.84 0 002.81.7A2 2 0 0122 16.92z"/>
  </symbol>

  <symbol id="message-circle" viewBox="0 0 24 24">
    <path d="M21 11.5a8.38 8.38 0 01-.9 3.8 8.5 8.5 0 01-7.6 4.7 8.38 8.38 0 01-3.8-.9L3 21l1.9-5.7a8.38 8.38 0 01-.9-3.8 8.5 8.5 0 014.7-7.6 8.38 8.38 0 013.8-.9h.5a8.48 8.48 0 018 8v.5z"/>
  </symbol>

  <symbol id="inbox" viewBox="0 0 24 24">
    <polyline points="22 12 16 12 14 15 10 15 8 12 2 12"/>
    <path d="M5.45 5.11L2 12v6a2 2 0 002 2h16a2 2 0 002-2v-6l-3.45-6.89A2 2 0 0016.76 4H7.24a2 2 0 00-1.79 1.11z"/>
  </symbol>

</svg>
